<?xml version="1.0" encoding="UTF-8"?>
<!DOCTYPE svg PUBLIC "-//W3C//DTD SVG 1.1//EN" "http://www.w3.org/Graphics/SVG/1.1/DTD/svg11.dtd">
<!-- Creator: CorelDRAW X7 -->
<svg xmlns="http://www.w3.org/2000/svg" xml:space="preserve" width="14in" height="8.5in" version="1.1" style="shape-rendering:geometricPrecision; text-rendering:geometricPrecision; image-rendering:optimizeQuality; fill-rule:evenodd; clip-rule:evenodd"
viewBox="0 0 14000 8500"
 xmlns:xlink="http://www.w3.org/1999/xlink">
 <defs>
  <style type="text/css">
   <![CDATA[
    .fil8 {fill:#1A4D5C}
    .fil6 {fill:#307A8A}
    .fil0 {fill:#34B1F4}
    .fil3 {fill:#36C2E1}
    .fil7 {fill:#4A5963}
    .fil9 {fill:#4A6199}
    .fil4 {fill:#508595}
    .fil2 {fill:#647987}
    .fil5 {fill:#797F80}
    .fil1 {fill:#A7B2B5}
   ]]>
  </style>
 </defs>
 <g id="Capa_x0020_1">
  <metadata id="CorelCorpID_0Corel-Layer"/>
  <g id="_1027319028928">
   <path class="fil0" d="M4179 2287c195,4 1005,337 1383,408 530,101 1118,153 1674,145l1244 49c223,17 509,26 671,119l180 45c111,-33 148,61 15,-116l-454 -371c-1461,-989 -2753,-921 -4471,-1222 -848,-148 -1036,-197 -1698,-557 296,698 824,991 1304,1333 134,138 47,35 152,167z"/>
   <path class="fil1" d="M6236 3958c-166,435 -544,665 -832,1641 -161,547 -32,494 -206,595 297,681 1153,1520 2201,1517 -627,-712 -1185,-1759 -607,-3055 415,-931 1210,-1553 2539,-1603l-180 -45c-663,-7 -1143,-29 -1734,207 -442,177 -997,483 -1181,743z"/>
   <path class="fil2" d="M6924 3123c-145,122 -420,209 -652,304 -178,73 -430,165 -576,288 -2,65 -687,470 -868,599l-889 722c28,564 213,1309 508,1767l143 177 414 -1368c12,-78 -84,1 0,0 69,-439 953,-1518 1232,-1654 184,-260 739,-566 1181,-743 591,-236 1071,-214 1734,-207 -162,-93 -448,-102 -671,-119 -546,-24 -1081,78 -1556,234z"/>
   <path class="fil3" d="M3464 3287c1221,182 1825,136 3014,-72l446 -92c475,-156 1010,-258 1556,-234l-1244 -49c-356,226 -2380,-42 -3029,-309 -441,-182 -234,-175 -200,-217 -990,114 -1491,222 -2488,62 341,411 1276,725 1945,911z"/>
   <path class="fil4" d="M6478 3215l-205 97c-626,193 -2598,392 -2970,137l-1987 977c654,623 2253,66 2699,-7 219,-125 564,-236 837,-349 284,-118 556,-281 844,-355 146,-123 398,-215 576,-288 232,-95 507,-182 652,-304l-446 92z"/>
   <path class="fil5" d="M5004 5612l30 128 164 454c174,-101 45,-48 206,-595 288,-976 666,-1206 832,-1641 -279,136 -1163,1215 -1232,1654z"/>
   <path class="fil6" d="M7236 2840c-556,8 -1144,-44 -1674,-145 -378,-71 -1188,-404 -1383,-408l-172 27c-181,32 -393,25 200,217 649,267 2673,535 3029,309z"/>
   <path class="fil7" d="M4015 4419l-76 617 889 -722c181,-129 866,-534 868,-599 -288,74 -560,237 -844,355 -273,113 -618,224 -837,349z"/>
   <path class="fil8" d="M3464 3287l-161 162c372,255 2344,56 2970,-137l205 -97c-1189,208 -1793,254 -3014,72z"/>
   <path class="fil9" d="M5004 5612c12,-78 -84,1 0,0z"/>
  </g>
 </g>
</svg>
